<?xml version="1.0" encoding="utf-8"?>
<!-- Generator: Adobe Illustrator 24.3.0, SVG Export Plug-In . SVG Version: 6.00 Build 0)  -->
<svg version="1.1" id="图层_1" xmlns="http://www.w3.org/2000/svg" xmlns:xlink="http://www.w3.org/1999/xlink" x="0px" y="0px"
	 viewBox="0 0 353 167" style="enable-background:new 0 0 353 167;" xml:space="preserve">
<style type="text/css">
	.st0{fill:#010101;stroke:#010101;stroke-width:0.103;}
	.st1{fill:#EB2531;}
</style>
<path class="st0" d="M139.2,107.7c0.2-0.8,0.7-1.5,1.4-2.1c0.7-0.6,1.5-0.9,2.4-0.9h5.7c1.1,0,2,0.4,2.7,1.2
	c0.7,0.8,1.1,1.7,1.1,2.7v45.6h-9.4v-36.6c0-0.1-0.1-0.2-0.2-0.2c-0.1,0-0.2,0-0.2,0.1l-8.1,33.8c-0.2,0.9-0.7,1.6-1.4,2.1
	c-0.7,0.5-1.5,0.8-2.3,0.8h-4.6c-0.9,0-1.6-0.3-2.3-0.8c-0.7-0.5-1.1-1.2-1.3-2.1l-8.1-33.5c0-0.1-0.1-0.1-0.2-0.1s-0.2,0.1-0.2,0.2
	v36.4h-5.8v-45.6c0-1,0.4-1.9,1.1-2.7c0.7-0.8,1.6-1.2,2.7-1.2h5.7c0.9,0,1.8,0.3,2.4,0.9c0.7,0.6,1.1,1.3,1.3,2.1l8.8,36.4
	L139.2,107.7z"/>
<path class="st0" d="M198.3,154.1l-4.8-13.8h-21.2l-5.1,13.8h-10.4l17.2-46.4c0.3-0.8,0.9-1.5,1.6-2.1c0.8-0.6,1.6-0.9,2.5-0.9h4.4
	c1,0,1.9,0.3,2.6,0.9c0.8,0.6,1.3,1.3,1.6,2.1l16.4,46.4H198.3z M173.5,136.9h18.8l-8.6-24.6c-0.1-0.2-0.3-0.3-0.6-0.3
	c-0.2,0-0.4,0.1-0.6,0.3L173.5,136.9z"/>
<path class="st0" d="M240.6,104.7h9.5v45.6c0,1.1-0.4,2-1.1,2.7c-0.7,0.7-1.6,1.1-2.7,1.1H241c-0.7,0-1.4-0.2-2-0.6
	c-0.6-0.4-1.1-0.9-1.4-1.6l-18.1-37.6c-0.1-0.2-0.2-0.3-0.4-0.2c-0.2,0-0.3,0.2-0.3,0.4v39.6h-9.5v-45.6c0-1,0.4-1.9,1.1-2.7
	c0.7-0.8,1.6-1.2,2.7-1.2h5.3c0.7,0,1.4,0.2,2,0.6c0.6,0.4,1.1,1,1.4,1.6l18.1,37.6c0.1,0.2,0.2,0.3,0.4,0.2c0.2,0,0.3-0.2,0.3-0.4
	V104.7z"/>
<path class="st0" d="M297.1,154.1l-4.8-13.8h-21.2l-5.1,13.8h-10.4l17.2-46.4c0.3-0.8,0.9-1.5,1.6-2.1c0.8-0.6,1.6-0.9,2.5-0.9h4.4
	c1,0,1.9,0.3,2.6,0.9c0.8,0.6,1.3,1.3,1.6,2.1l16.4,46.4H297.1z M272.3,136.9h18.8l-8.6-24.6c-0.1-0.2-0.3-0.3-0.5-0.3
	c-0.2,0-0.4,0.1-0.6,0.3L272.3,136.9z"/>
<path class="st0" d="M348.1,108.1h-31.1c-0.3,0-0.6,0.1-0.9,0.4c-0.3,0.2-0.4,0.6-0.4,1v16.1c0,0.4,0.1,0.7,0.4,1
	c0.3,0.3,0.6,0.4,0.9,0.4h26.7c1.1,0,2,0.4,2.7,1.1c0.8,0.7,1.1,1.6,1.1,2.7v19.6c0,1.1-0.4,2-1.1,2.7c-0.8,0.7-1.7,1.1-2.7,1.1
	h-35.8l-1.9-3.3h30.6c0.4,0,0.8-0.1,1-0.4c0.3-0.3,0.4-0.6,0.4-1v-17.8c0-0.3-0.1-0.6-0.4-0.9c-0.3-0.3-0.6-0.4-1-0.4h-26.7
	c-1,0-1.9-0.4-2.7-1.1c-0.7-0.7-1.1-1.6-1.1-2.7v-17.9c0-1.1,0.4-2,1.1-2.8c0.7-0.8,1.6-1.2,2.7-1.2h38.2V108.1z"/>
<path d="M247,76.1c0,0-77.3-17.2-158.8,8.4c-81.5,25.6-32.1,66.1-2,72.2c0,0-41.6-5.1-64.8-25.6C-1.9,110.6,8.1,77.3,114,64
	C190.8,54.3,247,76.1,247,76.1z"/>
<path class="st1" d="M132.1,74.4v16.9h7.5V73.4C137,73.7,134.9,74,132.1,74.4z"/>
<path class="st1" d="M132.1,37.9v24.5l7.5-0.4V42.8l8-3.4c0,0-0.2,52.2,0,52.4h7.7v-65L132.1,37.9z"/>
<path class="st1" d="M73.2,90.1v24.4h7.1V87.3C77.6,88.2,75.2,89.1,73.2,90.1z"/>
<path class="st1" d="M73.2,25.5v45.6l7-1.5v-39l18.3-8.4v92.4l7.7-0.1V10.3L73.2,25.5z"/>
</svg>
